{
  "accessors": [
    {
      "bufferView": 3,
      "componentType": 5126,
      "count": 4569,
      "max": [
        0.16461597383022308,
        0.06474607437849045,
        0.013780582696199417
      ],
      "min": [
        -0.20028188824653625,
        -0.06450042128562927,
        -0.013780604116618633
      ],
      "type": "VEC3"
    },
    {
      "bufferView": 3,
      "byteOffset": 54828,
      "componentType": 5126,
      "count": 4569,
      "max": [
        0.9999895691871643,
        0.9999983310699463,
        0.9999995827674866
      ],
      "min": [
        -0.9999839663505554,
        -0.9999989867210388,
        -0.9999995827674866
      ],
      "type": "VEC3"
    },
    {
      "bufferView": 4,
      "componentType": 5126,
      "count": 4569,
      "max": [
        0.9999996423721313,
        0.9999877214431763,
        0.9668757915496826,
        1.0
      ],
      "min": [
        -0.9987073540687561,
        -0.9999732971191406,
        -0.9993012547492981,
        -1.0
      ],
      "type": "VEC4"
    },
    {
      "bufferView": 2,
      "componentType": 5126,
      "count": 4569,
      "max": [
        0.9949033856391907,
        0.9932554364204407
      ],
      "min": [
        0.008545182645320892,
        0.011352896690368652
      ],
      "type": "VEC2"
    },
    {
      "bufferView": 1,
      "componentType": 5125,
      "count": 15234,
      "type": "SCALAR"
    },
    {
      "bufferView": 5,
      "componentType": 5126,
      "count": 5,
      "max": [
        1.0,
        39.36902618408203,
        0.2881265878677368,
        0.0,
        3.3415440157114062e-06,
        39.3690299987793,
        39.3690299987793,
        0.0,
        39.37008285522461,
        1.0749584362201858e-05,
        39.37008285522461,
        0.0,
        0.0,
        0.0,
        0.0,
        1.0
      ],
      "min": [
        -0.2881265878677368,
        0.0,
        -39.36902618408203,
        0.0,
        -39.3690299987793,
        -0.2881265878677368,
        0.0,
        0.0,
        0.0,
        0.0,
        -3.2957109397102613e-06,
        0.0,
        0.0,
        0.0,
        0.0,
        1.0
      ],
      "type": "MAT4"
    },
    {
      "bufferView": 0,
      "componentType": 5123,
      "count": 4569,
      "type": "VEC4"
    },
    {
      "bufferView": 4,
      "byteOffset": 73104,
      "componentType": 5126,
      "count": 4569,
      "max": [
        1.0,
        0.0,
        0.0,
        0.0
      ],
      "min": [
        1.0,
        0.0,
        0.0,
        0.0
      ],
      "type": "VEC4"
    }
  ],
  "asset": {
    "extras": {
      "author": "6lucius (https://sketchfab.com/6lucius)",
      "license": "CC-BY-4.0 (http://creativecommons.org/licenses/by/4.0/)",
      "source": "https://sketchfab.com/3d-models/tool-hammer-weapon-model-cs2-6e665ed1605b4833bdc772102ced6904",
      "title": "TOOL | Hammer Weapon Model (CS2)"
    },
    "generator": "Sketchfab-16.12.0",
    "version": "2.0"
  },
  "bufferViews": [
    {
      "buffer": 0,
      "byteLength": 36552,
      "byteStride": 8,
      "name": "shortBufferViews",
      "target": 34962
    },
    {
      "buffer": 0,
      "byteLength": 60936,
      "byteOffset": 36552,
      "name": "floatBufferViews",
      "target": 34963
    },
    {
      "buffer": 0,
      "byteLength": 36552,
      "byteOffset": 97488,
      "byteStride": 8,
      "name": "floatBufferViews",
      "target": 34962
    },
    {
      "buffer": 0,
      "byteLength": 109656,
      "byteOffset": 134040,
      "byteStride": 12,
      "name": "floatBufferViews",
      "target": 34962
    },
    {
      "buffer": 0,
      "byteLength": 146208,
      "byteOffset": 243696,
      "byteStride": 16,
      "name": "floatBufferViews",
      "target": 34962
    },
    {
      "buffer": 0,
      "byteLength": 320,
      "byteOffset": 389904,
      "name": "floatBufferViews"
    }
  ],
  "buffers": [
    {
      "byteLength": 390224,
      "uri": "scene.bin"
    }
  ],
  "extensionsUsed": [
    "KHR_materials_specular"
  ],
  "images": [
    {
      "uri": "textures/hammer_color_baseColor.png"
    },
    {
      "uri": "textures/hammer_color_metallicRoughness.png"
    },
    {
      "uri": "textures/hammer_color_normal.png"
    },
    {
      "uri": "textures/hammer_color_specularf0.png"
    }
  ],
  "materials": [
    {
      "extensions": {
        "KHR_materials_specular": {
          "specularColorFactor": [
            1.0,
            1.0,
            1.0
          ],
          "specularFactor": 0.8,
          "specularTexture": {
            "index": 3
          }
        }
      },
      "name": "hammer_color",
      "normalTexture": {
        "index": 2
      },
      "occlusionTexture": {
        "index": 1
      },
      "pbrMetallicRoughness": {
        "baseColorTexture": {
          "index": 0
        },
        "metallicRoughnessTexture": {
          "index": 1
        }
      }
    }
  ],
  "meshes": [
    {
      "name": "Object_0",
      "primitives": [
        {
          "attributes": {
            "JOINTS_0": 6,
            "NORMAL": 1,
            "POSITION": 0,
            "TANGENT": 2,
            "TEXCOORD_0": 3,
            "TEXCOORD_1": 3,
            "TEXCOORD_2": 3,
            "TEXCOORD_3": 3,
            "TEXCOORD_4": 3,
            "WEIGHTS_0": 7
          },
          "indices": 4,
          "material": 0,
          "mode": 4
        }
      ]
    }
  ],
  "nodes": [
    {
      "children": [
        1
      ],
      "matrix": [
        1.0,
        0.0,
        0.0,
        0.0,
        0.0,
        2.220446049250313e-16,
        -1.0,
        0.0,
        0.0,
        1.0,
        2.220446049250313e-16,
        0.0,
        0.0,
        0.0,
        0.0,
        1.0
      ],
      "name": "Sketchfab_model"
    },
    {
      "children": [
        2
      ],
      "name": "root"
    },
    {
      "children": [
        3
      ],
      "matrix": [
        1.0,
        0.0,
        0.0,
        0.0,
        0.0,
        2.220446049250313e-16,
        1.0,
        0.0,
        0.0,
        -1.0,
        2.220446049250313e-16,
        0.0,
        0.0,
        0.0,
        0.0,
        1.0
      ],
      "name": "GLTF_SceneRootNode"
    },
    {
      "children": [
        4
      ],
      "matrix": [
        -4.274195166235932e-09,
        2.1734416891100696e-09,
        0.025399999693035632,
        0.0,
        0.00018588769807459322,
        0.025399317619722857,
        -2.1421029978930874e-09,
        0.0,
        -0.025399321344913125,
        0.0001858877253374459,
        -4.289987168864234e-09,
        0.0,
        0.0,
        0.0,
        0.0,
        1.0
      ],
      "name": "w_hammer.vmdl_c_5"
    },
    {
      "children": [
        5,
        7,
        6
      ],
      "name": "GLTF_created_0"
    },
    {
      "children": [
        8,
        11
      ],
      "name": "GLTF_created_0_rootJoint"
    },
    {
      "name": "w_hammer.vmdl_c.w_hammer_bg_studio_lod0_4"
    },
    {
      "mesh": 0,
      "name": "Object_7",
      "skin": 0
    },
    {
      "children": [
        9
      ],
      "name": "weapon_hand_r_2",
      "rotation": [
        -0.5,
        0.5,
        -0.5,
        0.5000000596046448
      ],
      "scale": [
        1.0,
        1.0,
        1.0000001192092896
      ]
    },
    {
      "children": [
        10
      ],
      "name": "v_melee_root_1",
      "rotation": [
        -1.646407177258169e-10,
        -0.7071065902709961,
        -2.985628296987299e-15,
        0.7071070671081543
      ],
      "scale": [
        1.0000001192092896,
        1.0,
        1.0
      ]
    },
    {
      "name": "mesh_0",
      "rotation": [
        0.7071065902709961,
        -4.090952998581088e-08,
        4.400456887765358e-08,
        0.7071069478988647
      ],
      "scale": [
        1.0000001192092896,
        1.0,
        1.0
      ]
    },
    {
      "name": "hammer_ref1_3",
      "rotation": [
        -0.7071068286895752,
        -8.046724060456392e-16,
        -5.102799642385395e-16,
        0.7071068286895752
      ],
      "scale": [
        1.0000001192092896,
        1.0,
        1.0
      ]
    }
  ],
  "samplers": [
    {
      "magFilter": 9729,
      "minFilter": 9987,
      "wrapS": 10497,
      "wrapT": 10497
    }
  ],
  "scene": 0,
  "scenes": [
    {
      "name": "Sketchfab_Scene",
      "nodes": [
        0
      ]
    }
  ],
  "skins": [
    {
      "inverseBindMatrices": 5,
      "joints": [
        5,
        8,
        9,
        10,
        11
      ],
      "skeleton": 5
    }
  ],
  "textures": [
    {
      "sampler": 0,
      "source": 0
    },
    {
      "sampler": 0,
      "source": 1
    },
    {
      "sampler": 0,
      "source": 2
    },
    {
      "sampler": 0,
      "source": 3
    }
  ]
}
