{
  "accessors": [
    {
      "bufferView": 2,
      "componentType": 5126,
      "count": 1971,
      "max": [
        7.237500190734863,
        -0.5631999969482422,
        4.031099796295166
      ],
      "min": [
        -7.141300201416016,
        -2.697999954223633,
        1.2869999408721924
      ],
      "type": "VEC3"
    },
    {
      "bufferView": 2,
      "byteOffset": 23652,
      "componentType": 5126,
      "count": 1971,
      "max": [
        1.0,
        1.0,
        0.9999998807907104
      ],
      "min": [
        -1.0,
        -1.0,
        -1.0
      ],
      "type": "VEC3"
    },
    {
      "bufferView": 3,
      "componentType": 5126,
      "count": 1971,
      "max": [
        1.0,
        1.0,
        1.0,
        1.0
      ],
      "min": [
        -1.0,
        -1.0,
        -1.0,
        1.0
      ],
      "type": "VEC4"
    },
    {
      "bufferView": 1,
      "componentType": 5126,
      "count": 1971,
      "max": [
        0.9994999766349792,
        0.995199978351593
      ],
      "min": [
        0.005900000222027302,
        0.0005000000237487257
      ],
      "type": "VEC2"
    },
    {
      "bufferView": 0,
      "componentType": 5125,
      "count": 4287,
      "type": "SCALAR"
    },
    {
      "bufferView": 2,
      "byteOffset": 47304,
      "componentType": 5126,
      "count": 963,
      "max": [
        7.469200134277344,
        -0.5044999718666077,
        3.4477999210357666
      ],
      "min": [
        -8.149399757385254,
        -2.7260000705718994,
        -5.770199775695801
      ],
      "type": "VEC3"
    },
    {
      "bufferView": 2,
      "byteOffset": 58860,
      "componentType": 5126,
      "count": 963,
      "max": [
        1.0,
        1.0,
        0.9999998807907104
      ],
      "min": [
        -1.0,
        -1.0,
        -1.0
      ],
      "type": "VEC3"
    },
    {
      "bufferView": 3,
      "byteOffset": 31536,
      "componentType": 5126,
      "count": 963,
      "max": [
        1.0,
        1.0,
        0.9999986886978149,
        1.0
      ],
      "min": [
        -1.0,
        -0.9999998807907104,
        -0.9947563409805298,
        -1.0
      ],
      "type": "VEC4"
    },
    {
      "bufferView": 1,
      "byteOffset": 15768,
      "componentType": 5126,
      "count": 963,
      "max": [
        1.0,
        0.9965999722480774
      ],
      "min": [
        0.0032999999821186066,
        0.0020000000949949026
      ],
      "type": "VEC2"
    },
    {
      "bufferView": 0,
      "byteOffset": 17148,
      "componentType": 5125,
      "count": 2574,
      "type": "SCALAR"
    }
  ],
  "asset": {
    "extras": {
      "author": "zzzs570 (https://sketchfab.com/zzzs570)",
      "license": "CC-BY-4.0 (http://creativecommons.org/licenses/by/4.0/)",
      "source": "https://sketchfab.com/3d-models/tti-g34-1a3f5b8fc5314515aa338b72b42c1d11",
      "title": "TTI G34"
    },
    "generator": "Sketchfab-16.29.0",
    "version": "2.0"
  },
  "bufferViews": [
    {
      "buffer": 0,
      "byteLength": 27444,
      "name": "floatBufferViews",
      "target": 34963
    },
    {
      "buffer": 0,
      "byteLength": 23472,
      "byteOffset": 27444,
      "byteStride": 8,
      "name": "floatBufferViews",
      "target": 34962
    },
    {
      "buffer": 0,
      "byteLength": 70416,
      "byteOffset": 50916,
      "byteStride": 12,
      "name": "floatBufferViews",
      "target": 34962
    },
    {
      "buffer": 0,
      "byteLength": 46944,
      "byteOffset": 121332,
      "byteStride": 16,
      "name": "floatBufferViews",
      "target": 34962
    }
  ],
  "buffers": [
    {
      "byteLength": 168276,
      "uri": "scene.bin"
    }
  ],
  "extensionsUsed": [
    "KHR_materials_specular"
  ],
  "images": [
    {
      "uri": "textures/9fc4s_tga_Base_Color_png_Base_C_baseColor.png"
    },
    {
      "uri": "textures/9fc4s_tga_Base_Color_png_Base_C_metallicRoughness.png"
    },
    {
      "uri": "textures/9fc4s_tga_Base_Color_png_Base_C_normal.png"
    },
    {
      "uri": "textures/Glock_tga_Base_Color.png_baseColor.png"
    },
    {
      "uri": "textures/Glock_tga_Base_Color.png_metallicRoughness.png"
    },
    {
      "uri": "textures/Glock_tga_Base_Color.png_normal.png"
    }
  ],
  "materials": [
    {
      "doubleSided": true,
      "extensions": {
        "KHR_materials_specular": {
          "specularColorFactor": [
            1.0,
            1.0,
            1.0
          ],
          "specularFactor": 0.43123940949153367
        }
      },
      "name": "9fc4s_tga_Base_Color_png_Base_C",
      "normalTexture": {
        "index": 2
      },
      "occlusionTexture": {
        "index": 1
      },
      "pbrMetallicRoughness": {
        "baseColorTexture": {
          "index": 0
        },
        "metallicRoughnessTexture": {
          "index": 1
        }
      }
    },
    {
      "doubleSided": true,
      "extensions": {
        "KHR_materials_specular": {
          "specularColorFactor": [
            1.0,
            1.0,
            1.0
          ],
          "specularFactor": 0.48000146286160106
        }
      },
      "name": "Glock_tga_Base_Color.png",
      "normalTexture": {
        "index": 5
      },
      "occlusionTexture": {
        "index": 4
      },
      "pbrMetallicRoughness": {
        "baseColorTexture": {
          "index": 3
        },
        "metallicRoughnessTexture": {
          "index": 4
        }
      }
    }
  ],
  "meshes": [
    {
      "name": "Object_0",
      "primitives": [
        {
          "attributes": {
            "NORMAL": 1,
            "POSITION": 0,
            "TANGENT": 2,
            "TEXCOORD_0": 3
          },
          "indices": 4,
          "material": 0,
          "mode": 4
        }
      ]
    },
    {
      "name": "Object_1",
      "primitives": [
        {
          "attributes": {
            "NORMAL": 6,
            "POSITION": 5,
            "TANGENT": 7,
            "TEXCOORD_0": 8
          },
          "indices": 9,
          "material": 1,
          "mode": 4
        }
      ]
    }
  ],
  "nodes": [
    {
      "children": [
        1
      ],
      "matrix": [
        0.028936108574271202,
        0.0,
        0.0,
        0.0,
        0.0,
        6.42510679644186e-18,
        -0.028936108574271202,
        0.0,
        0.0,
        0.028936108574271202,
        6.42510679644186e-18,
        0.0,
        0.0,
        0.0,
        0.0,
        1.0
      ],
      "name": "Sketchfab_model"
    },
    {
      "children": [
        2,
        3
      ],
      "name": "glock.obj.cleaner.materialmerger.gles"
    },
    {
      "mesh": 0,
      "name": "Object_2"
    },
    {
      "mesh": 1,
      "name": "Object_3"
    }
  ],
  "samplers": [
    {
      "magFilter": 9729,
      "minFilter": 9987,
      "wrapS": 10497,
      "wrapT": 10497
    }
  ],
  "scene": 0,
  "scenes": [
    {
      "name": "Sketchfab_Scene",
      "nodes": [
        0
      ]
    }
  ],
  "textures": [
    {
      "sampler": 0,
      "source": 0
    },
    {
      "sampler": 0,
      "source": 1
    },
    {
      "sampler": 0,
      "source": 2
    },
    {
      "sampler": 0,
      "source": 3
    },
    {
      "sampler": 0,
      "source": 4
    },
    {
      "sampler": 0,
      "source": 5
    }
  ]
}
